<?xml version="1.0" encoding="UTF-8" standalone="no"?>
<svg
   xmlns:dc="http://purl.org/dc/elements/1.1/"
   xmlns:cc="http://creativecommons.org/ns#"
   xmlns:rdf="http://www.w3.org/1999/02/22-rdf-syntax-ns#"
   xmlns:svg="http://www.w3.org/2000/svg"
   xmlns="http://www.w3.org/2000/svg"
   xmlns:sodipodi="http://sodipodi.sourceforge.net/DTD/sodipodi-0.dtd"
   xmlns:inkscape="http://www.inkscape.org/namespaces/inkscape"
   version="1.1"
   x="0px"
   y="0px"
   viewBox="0 0 1000 1000"
   enable-background="new 0 0 1000 1000"
   xml:space="preserve"
   id="svg8"
   sodipodi:docname="ueber-uns.svg"
   inkscape:version="1.0.2 (e86c870879, 2021-01-15, custom)"><defs
   id="defs12" /><sodipodi:namedview
   pagecolor="#ffffff"
   bordercolor="#666666"
   borderopacity="1"
   objecttolerance="10"
   gridtolerance="10"
   guidetolerance="10"
   inkscape:pageopacity="0"
   inkscape:pageshadow="2"
   inkscape:window-width="767"
   inkscape:window-height="1161"
   id="namedview10"
   showgrid="false"
   inkscape:zoom="0.735"
   inkscape:cx="500"
   inkscape:cy="500"
   inkscape:window-x="62"
   inkscape:window-y="0"
   inkscape:window-maximized="0"
   inkscape:current-layer="svg8" />
<metadata
   id="metadata2"> Svg Vector Icons : http://www.onlinewebfonts.com/icon <rdf:RDF><cc:Work
     rdf:about=""><dc:format>image/svg+xml</dc:format><dc:type
       rdf:resource="http://purl.org/dc/dcmitype/StillImage" /><dc:title></dc:title></cc:Work></rdf:RDF></metadata>
<g
   id="g6"><path
     d="M507.4,554c-121.5,0-220.3-98.8-220.3-220.4c0-121.5,98.8-220.4,220.3-220.4c121.5,0,220.4,98.9,220.4,220.4C727.8,455.1,628.9,554,507.4,554L507.4,554z M507.4,153.6c-99.3,0-180.1,80.8-180.1,180.1c0,99.3,80.8,180.1,180.1,180.1c99.3,0,180.1-80.8,180.1-180.1C687.5,234.3,606.7,153.6,507.4,153.6L507.4,153.6z M843.6,886.7c-11.1,0-20.1-9-20.1-20.1c0-172.3-140.2-312.5-312.5-312.5c-172.3,0-312.5,140.2-312.5,312.5c0,11.1-9,20.1-20.1,20.1c-11.1,0-20.1-9-20.1-20.1c0-194.5,158.2-352.7,352.7-352.7c194.5,0,352.8,158.3,352.8,352.7C863.7,877.7,854.7,886.7,843.6,886.7L843.6,886.7z M245.9,505.5c-1.8,0-3.7-0.3-5.6-0.8c-78.5-22.5-133.4-95.3-133.4-177.1c0-101.6,82.6-184.2,184.2-184.2c11.1,0,20.1,9,20.1,20.1c0,11.1-9,20.1-20.1,20.1c-79.4,0-144,64.5-144,143.9c0,63.9,42.9,120.8,104.2,138.4c10.7,3.1,16.9,14.2,13.8,24.9C262.7,499.7,254.6,505.5,245.9,505.5L245.9,505.5z M31.6,784.2c-10.3,0-19.1-8-20-18.4C-3,593.2,84.4,480.9,245.4,465.3c11.2-0.7,20.9,7.1,22,18.1c1.1,11.1-7,20.9-18.1,22C111.1,518.7,39,612.4,51.7,762.3c0.9,11.1-7.3,20.8-18.4,21.8C32.7,784.1,32.2,784.2,31.6,784.2L31.6,784.2L31.6,784.2z M754.1,504.7c-8.8,0-16.8-5.7-19.3-14.6c-3.1-10.7,3.1-21.8,13.8-24.9c61.4-17.6,104.2-74.5,104.2-138.4c0-79.4-64.6-143.9-144-143.9c-11.1,0-20.1-9-20.1-20.1c0-11.1,9-20.1,20.1-20.1c101.6,0,184.2,82.6,184.2,184.2c0,81.8-54.8,154.6-133.4,177.1C757.8,504.4,756,504.7,754.1,504.7L754.1,504.7z M968.4,784c-0.6,0-1.1,0-1.7-0.1c-11.1-0.9-19.3-10.7-18.4-21.7c12.6-150-59.4-243.6-197.6-256.9c-11.1-1.1-19.2-10.9-18.1-22s11.3-19.2,22-18.1c161,15.5,248.4,127.7,233.9,300.4C987.5,776,978.7,784,968.4,784L968.4,784z"
     id="path4" /></g>
</svg>
